<?xml version="1.0" standalone="no"?>
<!DOCTYPE svg PUBLIC "-//W3C//DTD SVG 20010904//EN"
 "http://www.w3.org/TR/2001/REC-SVG-20010904/DTD/svg10.dtd">
<svg version="1.0" xmlns="http://www.w3.org/2000/svg"
 width="437.000000pt" height="437.000000pt" viewBox="0 0 437.000000 437.000000"
 preserveAspectRatio="xMidYMid meet">
<metadata>
Created by potrace 1.11, written by Peter Selinger 2001-2013
</metadata>
<g transform="translate(0.000000,437.000000) scale(0.100000,-0.100000)"
fill="#000000" stroke="none">
<path d="M2009 4366 c-2 -2 -34 -6 -70 -10 -469 -44 -971 -291 -1315 -647
-297 -308 -512 -724 -579 -1119 -3 -19 -8 -42 -10 -50 -20 -72 -28 -504 -11
-620 66 -477 263 -891 583 -1229 332 -352 765 -579 1253 -658 112 -18 474 -25
581 -11 342 44 651 155 929 333 246 158 474 382 638 630 62 94 171 298 200
375 8 19 18 44 23 55 41 92 100 329 123 497 15 111 18 398 6 503 -49 417 -188
768 -431 1091 -323 429 -823 738 -1339 828 -47 8 -101 18 -120 21 -39 7 -454
17 -461 11z m-1034 -919 c20 -5 187 -53 307 -88 76 -22 113 -53 123 -101 3
-18 18 -83 32 -145 l25 -111 52 -7 c60 -7 100 -12 181 -20 33 -3 71 -8 85 -10
14 -2 57 -6 95 -10 73 -7 117 -11 200 -21 108 -12 122 -13 185 -19 36 -3 76
-8 90 -10 14 -3 52 -7 85 -10 67 -5 157 -15 195 -20 14 -2 54 -6 90 -10 36 -3
81 -8 100 -10 19 -2 60 -7 90 -10 90 -9 153 -16 190 -21 19 -2 60 -6 90 -8 30
-3 71 -7 90 -10 19 -3 62 -8 95 -11 135 -12 180 -18 187 -21 4 -3 1 -23 -7
-47 -7 -23 -37 -127 -65 -232 -29 -104 -77 -280 -107 -390 -30 -110 -61 -222
-68 -249 -7 -26 -22 -58 -34 -70 l-22 -21 -755 -2 c-416 -1 -757 -3 -759 -5
-1 -1 -23 -70 -48 -153 l-46 -149 37 -32 c21 -18 46 -48 57 -68 17 -31 25 -36
55 -37 46 0 787 0 822 0 20 1 32 9 42 29 8 16 30 43 48 61 137 135 357 99 446
-73 21 -42 26 -65 26 -126 0 -81 -16 -125 -70 -189 -62 -74 -200 -108 -298
-75 -53 18 -138 90 -155 131 l-11 28 -442 0 c-351 0 -442 -3 -446 -13 -11 -34
-72 -98 -118 -124 -103 -57 -230 -45 -317 32 -153 135 -122 374 60 461 l50 24
43 144 c40 136 42 146 31 196 -7 29 -14 65 -17 81 -3 15 -7 31 -9 34 -2 4 -7
20 -9 36 -9 46 -12 62 -45 199 -31 136 -79 346 -87 380 -3 15 -105 464 -129
565 -2 8 -4 20 -4 26 -1 6 -76 33 -168 59 -92 26 -177 54 -189 62 -61 39 -53
141 14 178 25 14 58 15 107 2z"/>
<path d="M1512 2842 c-12 -8 -7 -68 7 -76 3 -2 35 -7 71 -10 36 -4 81 -9 100
-11 19 -3 67 -7 105 -10 39 -3 84 -7 100 -9 17 -2 64 -7 105 -10 41 -4 93 -9
115 -11 22 -3 67 -7 100 -10 33 -3 78 -8 100 -10 45 -5 122 -12 205 -20 30 -2
80 -7 110 -10 30 -2 82 -7 115 -10 33 -3 76 -7 95 -10 19 -2 64 -7 100 -10 36
-3 88 -8 115 -11 53 -6 89 -9 226 -20 82 -6 88 -5 99 15 14 27 5 58 -21 66
-19 6 -36 8 -169 20 -41 3 -91 8 -110 10 -19 2 -64 7 -100 10 -36 3 -105 10
-155 15 -49 5 -119 12 -155 15 -147 13 -279 26 -310 30 -14 2 -63 6 -110 10
-47 3 -96 8 -110 10 -14 2 -59 7 -100 10 -41 4 -86 8 -100 10 -14 2 -63 7
-110 10 -47 4 -94 9 -105 11 -49 9 -201 14 -213 6z"/>
<path d="M1566 2582 c-7 -11 3 -70 13 -76 3 -2 44 -7 91 -10 98 -8 150 -12
275 -22 97 -7 108 -8 260 -18 110 -8 176 -13 275 -21 36 -3 92 -8 125 -10 33
-2 98 -7 145 -10 47 -3 112 -8 145 -10 57 -4 87 -6 265 -21 106 -9 141 -6 156
14 17 22 17 26 -3 51 -15 17 -33 22 -103 26 -83 5 -171 11 -280 20 -30 3 -86
7 -125 10 -117 8 -227 16 -285 21 -110 8 -177 13 -265 19 -49 3 -110 8 -135
10 -25 2 -84 7 -131 10 -48 3 -111 8 -140 10 -187 15 -277 17 -283 7z"/>
<path d="M1640 2320 c-34 -34 -12 -79 40 -80 35 -1 166 -8 290 -14 58 -4 152
-8 210 -11 58 -3 139 -7 180 -10 41 -2 136 -7 210 -10 74 -4 160 -8 190 -10
30 -2 114 -6 185 -10 72 -3 163 -8 203 -11 83 -5 112 5 112 41 0 38 -34 53
-130 55 -47 1 -103 3 -125 5 -48 3 -270 15 -375 20 -41 2 -124 6 -185 9 -60 3
-157 8 -215 11 -58 3 -136 7 -175 9 -38 2 -140 7 -225 11 -85 4 -158 9 -162
11 -4 3 -17 -5 -28 -16z"/>
<path d="M1707 2050 c-19 -28 -10 -59 19 -66 13 -3 342 -7 731 -9 619 -2 710
0 726 13 22 19 22 45 0 64 -16 13 -112 15 -740 17 -721 1 -722 1 -736 -19z"/>
</g>
</svg>
